<svg width="160" height="160" viewBox="0 0 160 160" fill="none" xmlns="http://www.w3.org/2000/svg">
<path fill-rule="evenodd" clip-rule="evenodd" d="M22.5022 103.004C34.93 103.004 45.0044 92.9293 45.0044 80.502C45.0044 68.0748 34.93 58.0001 22.5022 58.0001C10.0743 58.0001 0 68.0748 0 80.502C0 92.9293 10.0743 103.004 22.5022 103.004ZM101.997 137.989C101.737 150.19 91.7641 160 79.5005 160C67.0727 160 56.9983 149.925 56.9983 137.498C56.9983 125.071 67.0727 114.997 79.5005 114.997C79.5307 114.997 79.562 114.996 79.5944 114.995C79.7286 114.996 79.8628 114.997 79.9981 114.997C99.1127 114.997 114.65 99.6737 114.99 80.6406C114.995 80.5915 114.997 80.5446 114.997 80.5C114.997 80.4699 114.996 80.4386 114.995 80.4074C114.996 80.2712 114.997 80.1339 114.997 79.9978C114.997 60.6689 99.3269 44.9983 79.9962 44.9983C79.7961 44.9983 79.5971 44.9994 79.3969 45.0027C67.016 44.9481 56.9963 34.8946 56.9963 22.5019C56.9963 10.0747 67.0707 0 79.4985 0C91.8929 0 101.946 10.0198 102.001 22.4002C101.997 22.5989 101.995 22.7987 101.995 22.9985C101.995 42.3273 117.665 57.9979 136.996 57.9979C137.13 57.9979 137.264 57.9979 137.397 57.9957C137.432 57.9979 137.465 57.9979 137.499 57.9979C149.926 57.9979 160 68.0726 160 80.4999C160 92.8948 149.978 102.949 137.595 103.001C137.396 102.997 137.196 102.996 136.996 102.996C117.669 102.996 102.001 118.662 101.995 137.987L101.997 137.989Z" fill="white"/>
</svg>
